**ABCDEFGHIJKLMNOPQRSTUVWXYZabcdefghijklmnopqrstuvwxyz**************************
**PARASOLID !"#$%&'()*+,-./:;<=>?@[\]^_`{|}~0123456789**************************
**PART1;
MC=unknown;
MC_MODEL=unknown;
MC_ID=unknown;
OS=unknown;
OS_RELEASE=unknown;
FRU=Parasolid 37.0.209;
APPL=Onshape;
SITE=unknown;
USER=unknown;
FORMAT=text;
GUISE=transmit;
KEY=BTGapi::writeModels_.xmt;
FILE=BTGapi::writeModels_.xmt;
DATE=2025-07-08T16:16:35 (UTC);
**PART2;
SCH=SCH_3700209_36001;
USFLD_SIZE=0;
**PART3;
**END_OF_HEADER*****************************************************************
T51 : TRANSMIT FILE created by modeller version 370020923 SCH_3700209_36001_1300
6231 0 12 36 CCCI7 lattice222 0 CCCI4 mesh1006 0 I8 polyline1008 0 CCCCCCCDI5 ow
ner1040 0 CCCI16 boundary_lattice222 0 CCCI13 boundary_mesh1006 0 I17 boundary_p
olyline1008 0 CCCA16 index_map_offset0 0 1 dA9 index_map82 0 A17 node_id_index_m
ap82 0 A20 schema_embedding_map82 0 A5 child12 0 A14 lowest_node_id0 0 1 dA16 me
sh_offset_data206 0 Z1 842 2 3 0 0 0 0 0 0 0 1e3 1e-8 0 4 5 1 0 1 2 6 0 7 8 9 0
 0 10 11 12 0 0 0 0 0 0 0 81 255 1 2 829 13 1 14 0 0 0 15 70 11 CI9 list_type0 0
 1 uI10 notransmit0 0 1 lCCCDCCDI12 finger_index0 0 1 dI12 finger_block1012 0 CZ
3 0 4 T1 0 0 5 20 1 16 16 13 255 6 135 0 1 0 17 0 0 18 0 50 255 7 289 0 17 19 0
 0 +-.0164095 .02872329387000955 -.0236 1 184933607950407e-30 0 -184933607950407
e-30 1 0 30 255 8 295 0 11 20 0 0 +-.0164095 .0474837938700096 -.0236 0 0 -1 29
 255 9 420 0 12 21 0 -.0016095 -.003350328654050825 -.0236 19 9 CCCCCCI5 frame23
0 0 CA5 owner12 0 Z10 134 0 1 18 0 22 0 V0 16 255 11 271 23 ?24 0 25 8 0 0 1 18
 255 12 416 26 27 0 28 9 ?1 81 1 26 789 29 12 0 0 30 31 32 17 255 27 0 33 34 35
 12 36 37 0 38 +18 28 401 39 40 12 41 21 ?1 81 1 39 791 29 28 0 0 31 42 43 17 40
 0 44 45 46 28 47 48 0 49 +18 41 128 50 51 28 52 53 ?1 29 21 405 0 28 54 9 -.016
4095 .04219290241599085 -.0236 29 54 260 0 55 56 21 -.0243595 -.0050372061299904
4 -.025 18 55 229 57 58 59 60 54 ?1 29 56 261 0 60 61 54 -.0164095 .009962793870
00957 -.025 18 60 233 62 63 55 64 56 ?1 29 61 262 0 64 65 56 -.0243595 .00996279
387000956 -.025 18 64 237 66 67 60 68 61 ?1 29 65 263 0 68 69 61 -.0016095 -.005
03720612999044 -.025 18 68 241 70 71 64 72 65 ?1 29 69 264 0 72 73 65 -.0016095
 .0474776811897755 -.025 18 72 245 74 75 68 76 69 ?1 29 73 265 0 76 53 69 -.0164
095 .0474837938700096 -.025 18 76 249 77 24 72 78 73 ?1 29 53 130 0 41 79 73 -.0
243595 -.00503720612999044 -.0236 29 79 125 0 52 80 53 -.0164095 .00996279387000
957 -.0236 18 52 123 81 82 41 59 79 ?1 29 80 120 0 59 83 79 -.0243595 .009962793
87000956 -.0236 18 59 118 84 85 52 55 80 ?1 29 83 762 0 86 87 80 -.0016095 .0421
9290241599085 -.0236 18 86 686 88 45 89 0 83 ?1 29 87 764 0 90 91 83 -.0164095 .
0474837938700096 -.0243 18 90 680 92 93 94 95 87 ?1 29 91 765 0 95 96 87 -.00160
95 .0474776811897755 -.0243 18 95 692 97 98 90 99 91 ?1 29 96 766 0 99 100 91 -.
0016095 .04219290241599085 -.0243 18 99 688 101 102 95 89 96 ?1 29 100 767 0 89
 103 96 -.0164095 .04219290241599085 -.0243 18 89 684 42 46 99 86 100 ?1 29 103
 768 0 104 105 100 -.015237451530993 -.00503720612999044 -.0236 18 104 583 106 1
07 108 94 103 ?1 29 105 771 0 94 109 103 -.015237451530993 -.003350328654050825
 -.0236 18 94 595 110 111 104 90 105 ?1 29 109 772 0 78 112 105 -.01523745153099
3 -.00503720612999044 -.0243 18 78 585 113 114 76 115 109 ?1 29 112 773 0 115 11
6 109 -.0016095 -.00503720612999044 -.0243 18 115 589 117 118 78 119 112 ?1 29 1
16 774 0 119 120 112 -.0016095 -.003350328654050825 -.0243 18 119 593 31 121 115
 108 116 ?1 29 120 775 0 108 0 116 -.015237451530993 -.003350328654050825 -.0243
 18 108 581 30 122 119 104 120 ?1 81 1 30 788 29 108 0 0 110 26 123 17 122 0 33
 35 34 108 111 124 0 125 -15 255 33 612 0 34 126 0 17 35 0 33 27 122 119 125 127
 0 36 +17 34 0 33 122 27 94 38 128 0 129 -17 111 0 130 107 131 94 122 124 0 34 +
16 124 562 132 ?111 37 133 134 0 0 1 17 125 0 135 136 121 108 35 127 0 131 -15 1
35 616 0 136 137 0 17 136 0 135 118 125 78 131 133 0 138 -17 121 0 135 125 118 1
19 139 140 0 35 -16 127 568 141 ?35 140 142 143 0 0 1 17 131 0 130 111 114 108 1
36 133 0 0 +15 130 600 0 107 144 0 17 114 0 130 131 107 78 145 146 0 136 -16 133
 565 147 ?131 124 148 149 0 0 1 81 1 147 808 29 133 0 0 132 141 150 16 148 576 1
51 ?138 133 140 152 0 0 1 30 149 757 0 133 152 153 0 +-.015237451530993 -.004193
767392020635 -.0243 0 1 0 30 152 758 0 148 143 149 0 +-.0129845 -.00503720612999
044 -.0243 -1 0 0 30 153 756 0 140 149 154 0 +-.0016095 .0212202375298925 -.0243
 1692940472336285e-31 -1 0 16 140 571 155 ?139 148 127 153 0 0 1 30 154 755 0 12
8 153 156 0 +-.00842347576549649 -.003350328654050825 -.0236 1 127291579518144e-
30 0 16 128 557 157 ?38 142 48 154 0 0 1 30 156 753 0 142 154 158 0 +-.015237451
530993 -.004193767392020635 -.0236 0 1 0 16 142 527 159 ?129 127 128 156 0 0 1 3
0 158 751 0 146 156 160 0 +-.015237451530993 -.00503720612999044 -.0243 0 0 1 16
 146 532 161 ?145 162 37 158 0 0 1 30 160 749 0 37 158 134 0 +-.0016095 -.003350
328654050825 -.0243 0 0 1 16 37 552 163 ?27 146 124 160 0 0 1 30 134 748 0 124 1
60 164 0 +-.015237451530993 -.003350328654050825 -.0243 0 0 1 30 164 747 0 165 1
34 166 0 +-.0016095 .0212202375298925 -.0243 1692940472336285e-31 -1 0 16 165 66
0 167 ?168 169 170 164 0 0 1 30 166 746 0 171 164 172 0 +-.0164095 .028723293870
00955 -.0243 184933607950407e-30 -1 0 16 171 622 173 ?174 170 175 166 0 0 1 30 1
72 745 0 170 166 176 0 +-.0090095 .04219290241599085 -.0243 1 0 0 16 170 632 177
 ?178 165 171 172 0 0 1 30 176 744 0 169 172 179 0 +-.0090095 .0474807375298925
 -.0243 -.999999914707691 .000413018899508731 0 16 169 650 180 ?93 181 165 176 0
 0 1 30 179 741 0 175 176 182 0 +-.0090095 .04219290241599085 -.0236 1 0 0 16 17
5 670 183 ?45 171 0 179 0 0 1 30 182 737 0 181 179 184 0 +-.0016095 .04219290241
599085 -.0243 0 0 1 16 181 635 185 ?186 48 169 182 0 0 1 30 184 736 0 48 182 187
 0 +-.0164095 .04219290241599085 -.0243 0 0 1 16 48 627 188 ?40 128 181 184 0 0
 1 30 187 17 0 189 184 190 0 +-.0164095 .02872329387000955 -.0236 18493360795040
7e-30 -1 0 16 189 15 191 ?82 192 193 187 0 0 1 30 190 27 0 192 187 194 0 +-.0016
095 .0212202375298925 -.0236 1692940472336285e-31 -1 0 16 192 25 195 ?196 197 18
9 190 0 0 1 30 194 45 0 197 190 198 0 +-.0129845 -.00503720612999044 -.0236 -1 0
 0 16 197 43 199 ?51 200 192 194 0 0 1 31 255 198 55 0 200 194 201 0 +-.06076619
26057388 .00246279387000955 -.0236 0 0 -1 -1 0 0 .03717118866123005 16 200 53 20
2 ?203 204 197 198 0 0 1 30 201 60 0 204 198 205 0 +.00229204009695682 .00996279
387000958 -.0236 1 872816843258769e-30 0 16 204 58 206 ?207 208 200 201 0 0 1 30
 205 259 0 162 201 209 0 +-.0164095 .02872329387000955 -.025 184933607950407e-30
 -1 0 16 162 223 210 ?211 212 146 205 0 0 1 30 209 258 0 212 205 213 0 +-.009009
5 .0474807375298925 -.025 -.999999914707691 .000413018899508731 0 16 212 219 214
 ?215 216 162 209 0 0 1 30 213 257 0 216 209 217 0 +-.0016095 .0212202375298925
 -.025 1692940472336285e-31 -1 0 16 216 211 218 ?219 220 212 213 0 0 1 30 217 25
6 0 220 213 221 0 +-.0129845 -.00503720612999044 -.025 -1 0 0 16 220 205 222 ?22
3 224 216 217 0 0 1 31 221 255 0 224 217 225 0 +-.0607661926057388 .002462793870
00955 -.025 0 0 -1 -1 0 0 .03717118866123005 16 224 201 226 ?227 193 220 221 0 0
 1 30 225 254 0 193 221 228 0 +.00229204009695682 .00996279387000958 -.025 1 872
816843258769e-30 0 16 193 197 229 ?230 189 224 225 0 0 1 30 228 290 0 231 225 23
2 0 +-.0243595 -.00503720612999044 -.0236 0 0 -1 16 231 266 233 ?58 234 235 228
 0 0 1 30 232 291 0 208 228 236 0 +-.0164095 .00996279387000957 -.0236 0 0 -1 16
 208 267 237 ?63 235 204 232 0 0 1 30 236 292 0 235 232 238 0 +-.0243595 .009962
79387000956 -.0236 0 0 -1 16 235 268 239 ?67 231 208 236 0 0 1 30 238 293 0 234
 236 20 0 +-.0016095 -.00503720612999044 -.0236 0 0 -1 16 234 269 240 ?71 25 231
 238 0 0 1 30 20 294 0 25 238 8 0 +-.0016095 .0474776811897755 -.0236 0 0 -1 16
 25 270 241 ?75 11 234 20 0 0 1 81 1 241 811 29 25 0 0 177 240 242 17 75 0 243 2
15 244 72 245 25 0 246 +15 243 474 0 244 247 0 17 215 0 243 248 75 76 249 212 0
 250 +17 244 0 243 75 248 95 93 169 0 245 -17 245 0 251 168 246 95 75 25 0 0 -17
 246 0 251 245 71 72 219 216 0 249 -15 251 278 0 36 252 0 17 71 0 251 246 139 68
 253 234 0 254 +17 219 0 255 223 249 68 246 216 0 0 +17 249 0 255 219 250 72 215
 212 0 0 -15 255 196 0 250 256 0 17 250 0 255 249 230 76 211 162 0 0 -17 230 0 2
55 250 257 60 258 193 0 211 +17 211 0 259 260 24 60 250 162 0 0 +15 259 482 0 26
1 17 0 17 260 0 259 262 211 52 63 208 0 207 -17 24 0 259 211 261 76 248 11 0 215
 +17 261 0 259 24 47 90 174 171 0 248 -17 248 0 243 244 215 90 24 11 0 0 -17 47
 0 259 261 262 89 40 48 0 0 -17 174 0 263 178 93 89 261 171 0 47 +15 263 715 0 1
74 264 0 17 178 0 263 98 174 99 46 170 0 168 +17 93 0 263 174 98 90 244 169 0 26
1 +17 98 0 263 93 178 95 168 165 0 244 -17 168 0 251 186 245 99 98 165 0 0 +17 1
86 0 251 196 168 86 102 181 0 265 +17 196 0 251 36 186 12 265 192 0 0 +17 102 0
 44 46 45 99 186 181 0 178 -17 265 0 266 49 38 86 196 192 0 0 -15 266 422 0 267
 268 0 17 49 0 266 82 265 28 45 175 0 262 -17 38 0 266 265 129 12 34 128 0 196 +
17 129 0 266 38 267 94 107 142 0 0 +17 267 0 266 129 203 104 51 197 0 0 -17 107
 0 130 114 111 104 129 142 0 145 -17 145 0 269 51 138 104 114 146 0 267 +15 269
 276 0 138 270 0 17 51 0 269 58 145 41 267 197 0 271 +17 138 0 269 145 253 78 11
8 148 0 0 +17 253 0 269 138 254 115 71 234 0 0 -17 118 0 135 121 136 115 138 148
 0 139 -17 139 0 251 71 36 115 121 140 0 253 +17 36 0 251 139 196 119 27 37 0 0
 -17 254 0 269 253 58 68 223 220 0 219 -17 58 0 269 254 51 55 271 231 0 227 +17
 223 0 255 257 219 55 254 220 0 0 +17 257 0 255 230 223 64 227 224 0 0 -17 227 0
 272 271 67 55 257 224 0 223 +15 272 274 0 227 273 0 17 271 0 272 274 227 41 58
 231 0 203 -17 67 0 272 227 274 64 85 235 0 258 +17 274 0 272 67 271 59 203 200
 0 275 -17 85 0 276 207 258 59 67 235 0 274 -17 258 0 276 85 63 64 230 193 0 257
 -15 276 272 0 258 277 0 17 63 0 276 258 207 60 260 208 0 230 +17 207 0 276 63 8
5 52 275 204 0 0 +17 275 0 266 203 82 59 207 204 0 0 -17 203 0 266 267 275 41 27
4 200 0 0 +17 82 0 266 275 49 52 262 189 0 260 +17 262 0 259 47 260 28 82 189 0
 0 -14 255 277 273 278 ?256 273 276 6 279 +0 0 256 273 22 81 1 278 836 280 277 2
81 0 282 283 284 14 256 181 283 ?285 277 255 6 286 +0 0 285 277 22 14 273 275 28
2 ?277 268 272 6 287 -0 0 277 268 22 50 279 284 0 277 286 287 0 +.00229204009695
682 .00996279387000958 -.0236 -872816843258769e-30 1 0 -1 -872816843258769e-30 0
 13 22 296 0 0 0 0 0 0 10 17 14 17 283 288 ?247 0 259 6 7 -0 0 247 0 22 81 1 288
 830 280 17 289 0 0 290 291 14 247 281 290 ?252 17 243 6 19 -0 0 252 17 22 81 1
 290 831 280 247 292 0 288 293 294 14 252 279 293 ?270 247 251 6 295 +0 0 270 24
7 22 50 19 288 0 247 295 7 0 +-.0090095 .0474807375298925 -.0236 -.0004130188995
08731 -.999999914707691 0 .999999914707691 -.000413018899508731 0 50 295 287 0 2
52 296 19 0 +-.0016095 .0212202375298925 -.0236 1 1692940472336285e-31 0 -169294
0472336285e-31 1 0 50 296 286 0 270 287 295 0 +-.0129845 -.00503720612999044 -.0
236 0 -1 0 0 0 -1 14 270 277 297 ?268 252 269 6 296 +0 0 268 252 22 51 255 287 2
85 0 273 279 296 0 +-.0607661926057388 .00246279387000955 -.0236 0 0 -1 .0371711
8866123005 -1 0 0 81 1 297 833 280 270 298 0 293 299 300 14 268 1 299 ?273 270 2
66 6 301 -0 0 273 270 22 81 1 299 834 280 268 302 0 297 282 303 50 301 3 0 268 3
04 286 0 +.001426040096956814 .01053505607136304 -.0236 0 0 -1 1 0 0 50 304 725
 0 285 305 301 0 +-.0090095 .04219290241599085 -.0243 0 -1 0 0 0 -1 50 286 253 0
 256 301 279 0 +.001426040096956814 .01053505607136304 -.025 0 0 -1 1 0 0 14 285
 700 306 ?264 256 44 6 304 -0 0 264 256 22 50 305 729 0 264 307 304 0 +-.0129845
 .02122329387000955 -.0243 0 0 1 1 0 0 14 264 712 308 ?144 285 263 6 305 +0 0 14
4 285 22 50 307 730 0 126 309 305 0 +-.00842347576549649 -.003350328654050825 -.
0243 127291579518144e-30 -1 0 1 127291579518144e-30 0 14 126 609 310 ?137 144 33
 6 307 +0 0 137 144 22 50 309 733 0 144 311 307 0 +-.015237451530993 -.004193767
392020635 -.0243 1 0 0 0 0 -1 14 144 597 312 ?126 264 130 6 309 +0 0 126 264 22
 50 311 735 0 137 0 309 0 +-.0129845 .02122329387000955 -.0243 0 0 1 1 0 0 14 13
7 613 313 ?0 126 135 6 311 +0 0 0 126 22 81 1 313 842 280 137 314 0 310 0 315 80
 7 CCCCCDI12 legal_owners0 17 1 lCZ1 280 0 316 8001 0 0 0 0 3 5 0 0 0 FFFFTFTFFF
FFFFFFF2 81 1 314 818 29 137 0 313 317 318 319 81 1 310 841 280 126 318 0 312 31
3 320 83 255 3 315 0 0 0 81 1 318 819 29 126 0 310 314 321 322 81 1 312 840 280
 144 317 0 308 310 323 83 3 320 0 0 0 81 1 317 817 29 144 0 312 199 314 324 81 1
 308 839 280 264 325 0 306 312 326 83 3 323 0 0 0 81 1 325 821 29 264 0 308 321
 302 327 81 1 306 838 280 285 321 0 283 308 328 83 3 326 0 0 0 81 1 321 820 29 2
85 0 306 318 325 329 81 1 283 837 280 256 330 0 278 306 331 83 3 328 0 0 0 81 1
 330 352 29 256 0 283 332 281 333 83 3 331 0 0 0 80 1 29 334 335 9000 0 0 0 0 3
 6 0 0 0 FFTFTFTTFFFFFFFFF1 81 1 332 351 29 273 0 282 214 330 336 81 1 281 355 2
9 277 0 278 330 337 338 82 255 3 333 65 1 2 81 1 337 359 29 1 0 339 281 97 340 8
2 3 338 65 4 2 81 1 339 827 341 1 337 14 0 0 342 81 1 97 782 29 95 0 0 337 117 3
43 82 3 340 65 0 3 81 1 117 783 29 115 0 0 97 92 344 82 3 343 71 0 0 81 1 92 784
 29 90 0 0 117 106 345 82 3 344 71 1 0 81 1 106 785 29 104 0 0 92 113 346 82 3 3
45 71 2 0 81 1 113 786 29 78 0 0 106 110 347 82 3 346 71 3 0 81 1 110 787 29 94
 0 0 113 30 348 82 3 347 71 4 0 82 3 348 71 5 0 80 1 341 349 350 8038 0 0 0 0 0
 0 0 0 0 TTTTTTTTTTTTTFTFT10 81 1 14 828 349 1 339 2 0 0 351 98 255 6 342 80 97
 114 116 32 50 80 1 349 352 353 8017 0 0 0 0 0 0 0 0 0 TTTTTTTTTTTTTFTFT3 84 255
 6 351 Part 279 255 13 353 SDL/TYSA_NAME79 14 350 SDL/TYSA_UNAME81 1 282 835 280
 273 332 0 299 278 354 81 1 214 349 29 212 0 0 222 332 355 82 3 336 65 0 2 81 1
 222 347 29 220 0 0 218 214 356 82 3 355 65 16 1 81 1 218 345 29 216 0 0 206 222
 357 82 3 356 65 14 1 81 1 206 344 29 204 0 0 229 218 358 82 3 357 65 12 1 81 1
 229 343 29 193 0 0 210 206 359 82 3 358 65 11 1 81 1 210 341 29 162 0 0 202 229
 360 82 3 359 65 10 1 81 1 202 340 29 200 0 0 226 210 361 82 3 360 65 8 1 81 1 2
26 339 29 224 0 0 237 202 362 82 3 361 65 7 1 81 1 237 335 29 208 0 0 239 226 36
3 82 3 362 65 6 1 81 1 239 334 29 235 0 0 233 237 364 82 3 363 65 2 1 81 1 233 3
33 29 231 0 0 77 239 365 82 3 364 65 1 1 81 1 77 331 29 76 0 0 70 233 366 82 3 3
65 65 0 1 81 1 70 329 29 68 0 0 74 77 367 82 3 366 65 10 0 81 1 74 327 29 72 0 0
 81 70 368 82 3 367 65 8 0 81 1 81 326 29 52 0 0 62 74 369 82 3 368 65 6 0 81 1
 62 325 29 60 0 0 84 81 370 82 3 369 65 5 0 81 1 84 324 29 59 0 0 66 62 371 82 3
 370 65 4 0 81 1 66 323 29 64 0 0 50 84 372 82 3 371 65 3 0 81 1 50 322 29 41 0
 0 57 66 373 82 3 372 65 2 0 81 1 57 321 29 55 0 0 0 50 374 82 3 373 65 1 0 82 3
 374 65 0 0 83 3 354 0 0 0 79 9 335 BTI/DetId82 3 329 71 3 2 81 1 302 822 29 268
 0 299 325 289 375 82 3 327 71 4 2 81 1 289 823 29 17 0 288 302 376 377 82 3 375
 71 5 2 81 1 376 824 29 252 0 293 289 298 378 82 3 377 71 6 2 81 1 293 832 280 2
52 376 0 290 297 379 81 1 298 825 29 270 0 297 376 292 380 82 3 378 71 7 2 81 1
 292 826 29 247 0 290 298 0 381 82 3 380 71 8 2 82 3 381 71 9 2 83 3 379 0 0 0 8
1 1 199 816 29 197 0 0 195 317 382 82 3 324 71 0 2 81 1 195 815 29 192 0 0 191 1
99 383 82 3 382 71 21 1 81 1 191 814 29 189 0 0 23 195 384 82 3 383 71 20 1 81 1
 23 813 29 11 0 0 240 191 385 82 3 384 71 19 1 81 1 240 812 29 234 0 0 241 23 38
6 82 3 385 71 18 1 82 3 386 71 17 1 82 3 322 71 2 2 82 3 319 71 1 2 79 15 316 SD
L/TYSA_COLOUR15 44 703 0 45 285 0 17 45 0 44 102 40 86 49 175 0 186 +83 3 303 0
 0 0 83 3 300 0 0 0 83 3 294 0 0 0 83 3 291 0 0 0 83 3 284 0 0 0 17 46 0 44 40 1
02 89 178 170 0 174 -81 1 177 810 29 170 0 0 141 241 387 82 3 242 71 16 1 81 1 1
41 809 29 127 0 0 147 177 388 82 3 387 71 15 1 82 3 388 71 14 1 81 1 188 798 29
 48 0 0 183 173 389 81 1 183 797 29 175 0 0 157 188 390 81 1 173 799 29 171 0 0
 188 155 391 82 3 389 71 3 1 81 1 155 800 29 140 0 0 173 163 392 82 3 391 71 4 1
 81 1 163 801 29 37 0 0 155 185 393 82 3 392 71 5 1 81 1 185 802 29 181 0 0 163
 167 394 82 3 393 71 6 1 81 1 167 803 29 165 0 0 185 161 395 82 3 394 71 7 1 81
 1 161 804 29 146 0 0 167 151 396 82 3 395 71 8 1 81 1 151 805 29 148 0 0 161 18
0 397 82 3 396 71 9 1 81 1 180 806 29 169 0 0 151 132 398 82 3 397 71 10 1 81 1
 132 807 29 124 0 0 180 147 399 82 3 398 71 11 1 82 3 399 71 12 1 81 1 157 796 2
9 128 0 0 159 183 400 82 3 390 71 2 1 81 1 159 795 29 142 0 0 101 157 401 82 3 4
00 71 1 1 81 1 101 794 29 99 0 0 88 159 402 82 3 401 71 0 1 81 1 88 793 29 86 0
 0 42 101 403 82 3 402 71 12 0 81 1 42 792 29 89 0 0 39 88 404 82 3 403 71 11 0
 82 3 404 71 10 0 30 143 759 0 127 0 152 0 +-.00842347576549649 -.00335032865405
0825 -.0243 1 127291579518144e-30 0 82 3 150 71 13 1 82 3 123 71 6 0 81 1 31 790
 29 119 0 0 26 39 405 82 3 405 71 8 0 82 3 43 71 9 0 82 3 32 71 7 0 19 18 297 0
 1 0 10 6 0 S0 74 4 CI16 index_map_offset0 0 1 dCCZ20 16 5 0 0 292 339 14 2 313
 0 0 0 0 0 0 0 0 0 0 0 0 0 0 0 80 1 13 280 406 8040 0 0 0 0 3 5 0 0 0 TTTFFFFFFF
FFFFFFF2 83 3 15 0 0 0 79 17 406 SDL/TYSA_COLOUR_21 0 
