**ABCDEFGHIJKLMNOPQRSTUVWXYZabcdefghijklmnopqrstuvwxyz**************************
**PARASOLID !"#$%&'()*+,-./:;<=>?@[\]^_`{|}~0123456789**************************
**PART1;
MC=unknown;
MC_MODEL=unknown;
MC_ID=unknown;
OS=unknown;
OS_RELEASE=unknown;
FRU=Parasolid 37.0.209;
APPL=Onshape;
SITE=unknown;
USER=unknown;
FORMAT=text;
GUISE=transmit;
KEY=BTGapi::writeModels_.xmt;
FILE=BTGapi::writeModels_.xmt;
DATE=2025-07-08T04:53:49 (UTC);
**PART2;
SCH=SCH_3700209_36001;
USFLD_SIZE=0;
**PART3;
**END_OF_HEADER*****************************************************************
T51 : TRANSMIT FILE created by modeller version 370020923 SCH_3700209_36001_1300
6231 0 12 36 CCCI7 lattice222 0 CCCI4 mesh1006 0 I8 polyline1008 0 CCCCCCCDI5 ow
ner1040 0 CCCI16 boundary_lattice222 0 CCCI13 boundary_mesh1006 0 I17 boundary_p
olyline1008 0 CCCA16 index_map_offset0 0 1 dA9 index_map82 0 A17 node_id_index_m
ap82 0 A20 schema_embedding_map82 0 A5 child12 0 A14 lowest_node_id0 0 1 dA16 me
sh_offset_data206 0 Z1 343 2 3 0 0 0 0 0 0 0 1e3 1e-8 0 4 0 1 0 1 2 5 0 6 7 8 0
 0 9 10 11 0 0 0 0 0 0 0 81 255 1 2 333 12 1 13 0 0 0 14 70 11 CI9 list_type0 0
 1 uI10 notransmit0 0 1 lCCCDCCDI12 finger_index0 0 1 dI12 finger_block1012 0 CZ
3 0 4 T1 0 0 5 20 1 15 15 13 255 5 89 0 1 0 16 0 0 17 0 51 255 6 244 0 16 18 0 0
 +-.0602661926057388 .00246279387000956 -.0236 0 0 -1 .03717118866123005 -1 0 0
 30 255 7 252 0 10 19 0 0 +-.0238595 .00996279387000956 -.0236 0 0 -1 29 255 8 2
05 0 20 21 0 -.0238595 -.00503720612999044 -.025 19 9 CCCCCCI5 frame230 0 CA5 ow
ner12 0 Z9 88 0 1 17 0 22 0 V0 16 255 10 220 23 ?24 0 25 7 0 0 1 18 255 11 82 26
 27 0 28 29 ?1 81 1 26 291 30 11 0 0 31 32 33 17 255 27 0 34 35 36 11 37 38 0 39
 -18 28 77 40 41 11 42 43 ?1 29 29 84 0 11 43 44 -.0238595 -.00503720612999044 -
.0236 29 43 79 0 28 45 29 -.0147425 -.00503720612999043 -.0236 29 44 212 0 46 29
 47 -.0238595 .00996279387000956 -.025 18 46 192 32 24 48 0 44 ?1 29 47 211 0 48
 44 49 -.0159095 .00996279387000957 -.025 18 48 188 50 51 52 46 47 ?1 29 49 210
 0 52 47 53 -.0159095 .04218979387000955 -.025 18 52 184 54 55 56 48 49 ?1 29 53
 209 0 56 49 57 -.0011095 .04218979387000955 -.025 18 56 180 58 59 60 52 53 ?1 2
9 57 208 0 60 53 61 -.001109499999999964 -.00334620612999042 -.025 18 60 176 62
 63 64 56 57 ?1 29 61 207 0 64 57 21 -.0147425 -.003346206129990435 -.025 18 64
 172 65 66 67 60 61 ?1 29 21 206 0 67 61 8 -.0147425 -.00503720612999043 -.025 1
8 67 168 68 69 20 64 21 ?1 81 1 68 288 30 67 0 0 70 40 71 17 69 0 72 73 74 67 41
 75 0 76 +18 20 164 31 37 77 67 8 ?1 81 1 31 290 30 20 0 0 40 26 78 17 37 0 79 7
6 39 20 27 38 0 80 +18 77 47 81 82 83 20 84 ?1 81 1 81 293 30 77 0 0 32 50 85 17
 82 0 86 87 88 77 24 10 0 89 -18 83 52 90 91 92 77 93 ?1 29 84 49 0 77 0 93 -.02
38595 .00996279387000956 -.0236 29 93 54 0 83 84 94 -.0159095 .00996279387000957
 -.0236 29 94 59 0 92 93 95 -.0159095 .04218979387000955 -.0236 18 92 57 96 97 9
8 83 94 ?1 29 95 64 0 98 94 99 -.0011095 .04218979387000955 -.0236 18 98 62 100
 101 102 92 95 ?1 29 99 69 0 102 95 45 -.001109499999999964 -.00334620612999042
 -.0236 18 102 67 103 104 42 98 99 ?1 29 45 74 0 42 99 43 -.0147425 -.0033462061
29990435 -.0236 18 42 72 70 105 28 102 45 ?1 81 1 70 287 30 42 0 0 65 68 106 17
 105 0 72 74 73 42 66 107 0 108 -15 255 72 223 0 73 109 0 17 74 0 72 69 105 28 1
10 111 0 112 +17 73 0 72 105 69 64 113 114 0 115 -17 66 0 116 117 108 64 105 107
 0 73 +16 107 215 118 ?66 119 75 120 0 0 1 17 108 0 116 66 104 42 121 122 0 110
 +15 116 225 0 117 123 0 17 104 0 116 108 117 102 63 119 0 124 -17 121 0 125 126
 110 102 108 122 0 0 -16 122 32 127 ?108 111 128 129 0 0 1 17 110 0 125 121 112
 42 74 111 0 0 -15 125 6 0 130 131 0 17 112 0 125 110 130 28 39 132 0 0 -16 111
 37 133 ?74 132 122 134 0 0 1 81 1 133 317 30 111 0 0 135 136 137 16 132 42 138
 ?39 38 111 139 0 0 1 30 134 39 0 111 129 139 0 +-.0147425 .008783 -.0236 102585
657952502e-29 -1 0 30 129 34 0 122 140 134 0 +.00229204009695683 -.0033462061299
90415 -.0236 -1 -1017955534938344e-30 0 30 139 44 0 132 134 141 0 +.002292040096
956825 -.00503720612999043 -.0236 -1 -3805469948397065e-31 0 31 255 141 204 0 14
2 139 143 0 +-.0602661926057388 .00246279387000956 -.025 0 0 -1 -1 0 0 .03717118
866123005 16 142 160 144 ?36 145 0 141 0 0 1 30 143 203 0 145 141 146 0 +.002292
04009695682 .00996279387000958 -.025 1 436408421629386e-30 0 16 145 156 147 ?148
 149 142 143 0 0 1 30 146 202 0 149 143 150 0 +-.0159095 .008783 -.025 -21531305
7495492e-30 1 0 16 149 152 151 ?152 153 145 146 0 0 1 30 150 201 0 153 146 154 0
 +.00229204009695682 .04218979387000955 -.025 1 0 0 16 153 148 155 ?156 157 149
 150 0 0 1 30 154 200 0 157 150 158 0 +-.001109499999999976 .008783 -.025 952391
226708982e-30 -1 0 16 157 144 159 ?160 161 153 154 0 0 1 30 158 199 0 161 154 16
2 0 +.00229204009695683 -.003346206129990415 -.025 -1 -1017955534938344e-30 0 16
 161 140 163 ?115 114 157 158 0 0 1 30 162 198 0 114 158 164 0 +-.0147425 .00878
3 -.025 102585657952502e-29 -1 0 16 114 136 135 ?113 165 161 162 0 0 1 30 164 19
7 0 165 162 166 0 +.002292040096956825 -.00503720612999043 -.025 -1 -38054699483
97065e-31 0 16 165 132 136 ?80 167 114 164 0 0 1 30 166 245 0 38 164 168 0 +-.02
38595 -.00503720612999044 -.0236 0 0 -1 16 38 213 169 ?37 75 132 166 0 0 1 30 16
8 246 0 75 166 120 0 +-.0147425 -.00503720612999043 -.0236 0 0 -1 16 75 214 170
 ?69 107 38 168 0 0 1 30 120 247 0 107 168 171 0 +-.0147425 -.003346206129990435
 -.0236 0 0 -1 30 171 248 0 119 120 172 0 +-.001109499999999964 -.00334620612999
042 -.0236 0 0 -1 16 119 216 173 ?63 174 107 171 0 0 1 30 172 249 0 174 171 175
 0 +-.0011095 .04218979387000955 -.0236 0 0 -1 16 174 217 176 ?59 177 119 172 0
 0 1 30 175 250 0 177 172 19 0 +-.0159095 .04218979387000955 -.0236 0 0 -1 16 17
7 218 178 ?55 25 174 175 0 0 1 30 19 251 0 25 175 7 0 +-.0159095 .00996279387000
957 -.0236 0 0 -1 16 25 219 179 ?51 10 177 19 0 0 1 81 1 179 303 30 25 0 0 23 14
4 180 17 51 0 86 88 87 48 91 25 0 181 +15 86 233 0 88 182 0 17 88 0 86 82 51 46
 148 145 0 183 -17 87 0 86 51 82 83 89 184 0 185 +17 91 0 186 187 181 83 51 25 0
 87 -17 181 0 186 91 55 48 152 149 0 148 -15 186 231 0 181 188 0 17 55 0 186 181
 187 52 97 177 0 189 +17 152 0 190 156 148 52 181 149 0 0 +17 148 0 190 152 183
 48 88 145 0 0 +15 190 131 0 183 191 0 17 183 0 190 148 80 46 36 142 0 0 -17 80
 0 190 183 113 20 76 165 0 36 +17 36 0 34 27 24 20 183 142 0 0 +15 34 235 0 36 1
6 0 17 24 0 34 36 35 46 82 10 0 88 +17 35 0 34 24 27 77 130 167 0 0 -17 130 0 12
5 112 89 11 35 167 0 0 +16 167 7 192 ?130 184 165 193 0 0 1 81 1 192 305 30 167
 0 0 144 163 194 16 184 12 195 ?87 196 167 197 0 0 1 31 193 9 0 167 0 197 0 +-.0
602661926057388 .00246279387000956 -.0236 0 0 -1 -1 0 0 .03717118866123005 30 19
7 14 0 184 193 198 0 +.00229204009695682 .00996279387000958 -.0236 1 43640842162
9386e-30 0 30 198 19 0 196 197 199 0 +-.0159095 .008783 -.0236 -215313057495492e
-30 1 0 16 196 17 200 ?187 201 184 198 0 0 1 30 199 24 0 201 198 140 0 +.0022920
4009695682 .04218979387000955 -.0236 1 0 0 16 201 22 202 ?203 128 196 199 0 0 1
 30 140 29 0 128 199 129 0 +-.001109499999999976 .008783 -.0236 952391226708982e
-30 -1 0 16 128 27 204 ?124 122 201 140 0 0 1 81 1 204 313 30 128 0 0 159 155 20
5 17 124 0 206 63 101 102 126 128 0 121 +15 206 227 0 207 208 0 17 63 0 206 207
 124 60 104 119 0 117 +17 101 0 206 124 207 98 59 174 0 203 -17 126 0 125 209 12
1 98 124 128 0 0 -17 209 0 125 185 126 92 203 201 0 0 -17 185 0 125 89 209 83 18
7 196 0 0 -17 203 0 210 59 97 98 209 201 0 126 +15 210 229 0 189 211 0 17 59 0 2
10 189 203 56 101 174 0 207 +17 97 0 210 203 189 92 55 177 0 187 -17 189 0 210 9
7 59 52 156 153 0 152 -17 187 0 186 55 91 92 185 196 0 209 +17 156 0 190 160 152
 56 189 153 0 0 +17 160 0 190 115 156 60 207 157 0 0 +17 115 0 190 113 160 64 11
7 161 0 0 +17 207 0 206 101 63 56 160 157 0 156 -17 113 0 190 80 115 67 73 114 0
 0 +17 117 0 116 104 66 60 115 161 0 160 -14 255 211 230 212 ?208 188 210 5 213
 +0 0 208 188 22 81 1 212 337 214 211 215 0 216 217 218 14 208 228 217 ?123 211
 206 5 219 +0 0 123 211 22 14 188 232 216 ?211 182 186 5 220 +0 0 211 182 22 50
 255 213 241 0 211 219 220 0 +.00229204009695682 .04218979387000955 -.0236 0 1 0
 0 0 1 13 22 253 0 0 0 0 0 0 9 16 14 16 236 221 ?182 0 34 5 6 -0 0 182 0 22 81 1
 221 334 214 16 222 0 0 223 224 14 182 234 223 ?188 16 86 5 18 +0 0 188 16 22 81
 1 223 335 214 182 225 0 221 216 226 50 18 243 0 182 220 6 0 +.00229204009695682
 .00996279387000958 -.0236 -436408421629386e-30 1 0 -1 -436408421629386e-30 0 50
 220 242 0 188 213 18 0 +-.0159095 .008783 -.0236 -1 -215313057495492e-30 0 2153
13057495492e-30 -1 0 80 7 CCCCCDI12 legal_owners0 17 1 lCZ1 214 0 227 8001 0 0 0
 0 3 5 0 0 0 FFFFTFTFFFFFFFFFF2 81 1 225 325 30 182 0 223 228 229 230 81 1 216 3
36 214 188 228 0 223 212 231 83 255 3 226 0 0 0 81 1 228 324 30 188 0 216 232 22
5 233 83 3 231 0 0 0 80 1 30 234 235 9000 0 0 0 0 3 6 0 0 0 FFTFTFTTFFFFFFFFF1 8
1 1 232 323 30 123 0 236 237 228 238 82 255 3 233 65 4 2 14 123 226 236 ?109 208
 116 5 239 +0 0 109 208 22 81 1 236 339 214 123 232 0 217 240 241 81 1 237 322 3
0 131 0 242 243 232 244 82 3 238 65 3 2 14 131 1 242 ?191 245 125 5 246 -0 0 191
 245 22 81 1 242 342 214 131 237 0 247 248 249 81 1 243 321 30 191 0 248 222 237
 250 82 3 244 65 2 2 14 191 120 248 ?0 131 190 5 251 +0 0 0 131 22 81 1 248 343
 214 191 243 0 242 0 252 81 1 222 320 30 16 0 221 138 243 253 82 3 250 65 1 2 81
 1 138 319 30 132 0 0 136 222 254 82 3 253 65 0 2 81 1 136 318 30 165 0 0 133 13
8 255 82 3 254 65 23 1 82 3 255 65 22 1 83 3 252 0 0 0 50 251 196 0 191 246 256
 0 +.001426040096956814 .01053505607136304 -.025 0 0 -1 1 0 0 50 246 3 0 131 0 2
51 0 +.001426040096956814 .01053505607136304 -.0236 0 0 -1 1 0 0 50 256 237 0 24
5 251 257 0 +.002292040096956825 -.00503720612999043 -.0236 3805469948397065e-31
 -1 0 1 3805469948397065e-31 0 14 245 222 247 ?131 109 79 5 256 +0 0 131 109 22
 50 257 238 0 109 256 239 0 +-.0147425 .008783 -.0236 1 102585657952502e-29 0 -1
02585657952502e-29 1 0 14 109 224 240 ?245 123 72 5 257 +0 0 245 123 22 50 239 2
39 0 123 257 219 0 +.00229204009695683 -.003346206129990415 -.0236 1017955534938
344e-30 -1 0 1 1017955534938344e-30 0 50 219 240 0 208 239 213 0 +-.001109499999
999976 .008783 -.0236 1 952391226708982e-30 0 -952391226708982e-30 1 0 81 1 240
 340 214 109 258 0 236 247 259 81 1 258 328 30 109 0 240 215 260 261 81 1 247 34
1 214 245 260 0 240 242 262 83 3 259 0 0 0 81 1 260 329 30 245 0 247 258 263 264
 83 3 262 0 0 0 81 1 263 330 30 1 0 265 260 0 266 82 3 264 65 9 2 81 1 265 331 2
67 1 263 13 0 0 268 82 3 266 65 0 3 80 1 267 269 270 8038 0 0 0 0 0 0 0 0 0 TTTT
TTTTTTTTTFTFT10 81 1 13 332 269 1 265 2 0 0 271 98 255 6 268 80 97 114 116 32 50
 80 1 269 272 273 8017 0 0 0 0 0 0 0 0 0 TTTTTTTTTTTTTFTFT3 84 255 6 271 Part 27
9 255 13 273 SDL/TYSA_NAME79 14 270 SDL/TYSA_UNAME81 1 215 327 30 211 0 212 229
 258 274 82 3 261 65 8 2 81 1 229 326 30 208 0 217 225 215 275 82 3 274 65 7 2 8
1 1 217 338 214 208 229 0 212 236 276 82 3 275 65 6 2 83 3 276 0 0 0 15 79 221 0
 76 245 0 17 76 0 79 41 37 67 80 165 0 113 -17 41 0 79 39 76 28 69 75 0 74 -17 3
9 0 79 37 41 11 112 132 0 130 +83 3 249 0 0 0 83 3 241 0 0 0 79 9 235 BTI/DetId8
2 3 230 65 5 2 79 15 227 SDL/TYSA_COLOUR83 3 224 0 0 0 83 3 218 0 0 0 17 89 0 12
5 130 185 77 87 184 0 35 -81 1 159 312 30 157 0 0 195 204 277 81 1 155 314 30 15
3 0 0 204 202 278 82 3 205 65 17 1 81 1 202 315 30 201 0 0 155 135 279 82 3 278
 65 18 1 81 1 135 316 30 114 0 0 202 133 280 82 3 279 65 19 1 82 3 280 65 20 1 8
1 1 195 311 30 184 0 0 147 159 281 82 3 277 65 16 1 81 1 147 310 30 145 0 0 200
 195 282 82 3 281 65 15 1 81 1 200 309 30 196 0 0 151 147 283 82 3 282 65 14 1 8
1 1 151 308 30 149 0 0 127 200 284 82 3 283 65 13 1 81 1 127 307 30 122 0 0 163
 151 285 82 3 284 65 12 1 81 1 163 306 30 161 0 0 192 127 286 82 3 285 65 11 1 8
2 3 286 65 10 1 81 1 144 304 30 142 0 0 179 192 287 82 3 194 65 9 1 82 3 287 65
 8 1 81 1 23 302 30 10 0 0 169 179 288 82 3 180 65 7 1 81 1 169 301 30 38 0 0 17
0 23 289 82 3 288 65 6 1 81 1 170 300 30 75 0 0 118 169 290 82 3 289 65 5 1 81 1
 118 299 30 107 0 0 173 170 291 82 3 290 65 4 1 81 1 173 298 30 119 0 0 178 118
 292 82 3 291 65 3 1 81 1 178 297 30 177 0 0 176 173 293 82 3 292 65 2 1 81 1 17
6 296 30 174 0 0 90 178 294 82 3 293 65 1 1 81 1 90 295 30 83 0 0 50 176 295 82
 3 294 65 0 1 81 1 50 294 30 48 0 0 81 90 296 82 3 295 65 15 0 82 3 296 65 14 0
 82 3 137 65 21 1 81 1 65 286 30 64 0 0 103 70 297 82 3 106 65 7 0 81 1 103 285
 30 102 0 0 62 65 298 82 3 297 65 6 0 81 1 62 284 30 60 0 0 96 103 299 82 3 298
 65 5 0 81 1 96 283 30 92 0 0 54 62 300 82 3 299 65 4 0 81 1 54 282 30 52 0 0 10
0 96 301 82 3 300 65 3 0 81 1 100 281 30 98 0 0 58 54 302 82 3 301 65 2 0 81 1 5
8 280 30 56 0 0 0 100 303 82 3 302 65 1 0 82 3 303 65 0 0 81 1 32 292 30 46 0 0
 26 81 304 82 3 85 65 13 0 82 3 304 65 12 0 81 1 40 289 30 28 0 0 68 31 305 82 3
 78 65 10 0 82 3 305 65 9 0 82 3 71 65 8 0 82 3 33 65 11 0 19 17 254 0 1 0 9 5 0
 S0 74 4 CI16 index_map_offset0 0 1 dCCZ20 15 5 0 0 263 265 13 2 248 0 0 0 0 0 0
 0 0 0 0 0 0 0 0 0 80 1 12 214 306 8040 0 0 0 0 3 5 0 0 0 TTTFFFFFFFFFFFFFF2 83
 3 14 0 0 0 79 17 306 SDL/TYSA_COLOUR_21 0 
