**ABCDEFGHIJKLMNOPQRSTUVWXYZabcdefghijklmnopqrstuvwxyz**************************
**PARASOLID !"#$%&'()*+,-./:;<=>?@[\]^_`{|}~0123456789**************************
**PART1;
MC=unknown;
MC_MODEL=unknown;
MC_ID=unknown;
OS=unknown;
OS_RELEASE=unknown;
FRU=Parasolid 37.0.209;
APPL=Onshape;
SITE=unknown;
USER=unknown;
FORMAT=text;
GUISE=transmit;
KEY=BTGapi::writeModels_.xmt;
FILE=BTGapi::writeModels_.xmt;
DATE=2025-07-09T02:27:18 (UTC);
**PART2;
SCH=SCH_3700209_36001;
USFLD_SIZE=0;
**PART3;
**END_OF_HEADER*****************************************************************
T51 : TRANSMIT FILE created by modeller version 370020923 SCH_3700209_36001_1300
6231 0 12 36 CCCI7 lattice222 0 CCCI4 mesh1006 0 I8 polyline1008 0 CCCCCCCDI5 ow
ner1040 0 CCCI16 boundary_lattice222 0 CCCI13 boundary_mesh1006 0 I17 boundary_p
olyline1008 0 CCCA16 index_map_offset0 0 1 dA9 index_map82 0 A17 node_id_index_m
ap82 0 A20 schema_embedding_map82 0 A5 child12 0 A14 lowest_node_id0 0 1 dA16 me
sh_offset_data206 0 Z1 54 2 3 0 0 0 0 0 0 0 1e3 1e-8 0 4 5 1 0 1 2 6 0 7 8 0 0 0
 9 10 0 0 0 0 0 0 0 0 81 255 1 2 51 11 1 12 0 0 0 13 70 11 CI9 list_type0 0 1 uI
10 notransmit0 0 1 lCCCDCCDI12 finger_index0 0 1 dI12 finger_block1012 0 CZ3 0 4
 T1 0 0 5 20 1 14 14 13 255 6 38 0 1 0 15 0 0 16 0 67 255 7 37 0 15 17 0 0 +18 0
 0 -1 ?134 255 8 32 0 19 18 0 0 +20 21 19 9 CCCCCCI5 frame230 0 CA5 owner12 0 Z9
 1 0 1 16 0 22 0 V0 16 255 10 8 23 ?24 0 19 18 0 0 1 81 1 23 44 25 10 0 0 26 27
 28 17 255 24 0 29 24 24 0 30 10 0 0 +16 19 27 26 ?31 10 0 8 0 0 1 134 18 11 0 1
0 0 8 32 +33 34 141 255 32 7 32 32 18 136 255 33 3 11 3 11 6 TTF2 35 36 37 135 2
55 34 2 0 45 255 33 35 -.0438290263514046 .0425529614116975 .056 -.0421759911698
4385 .0437984968043974 .056 -.03614870698354195 .04221545808602125 .056 -.018602
818752134 .0399723080373989 .056 -.0276231509000634 .02140378923799275 .056 -.03
28479220907653 .01933566608417685 .056 -.0349783596532394 .02185126703468255 .05
6 -.045627686111879 .0315256453357299 .056 -.0466997208372641 .03629392370490565
 .056 -.0453201302482502 .04142943863466845 .056 -.0438290263514046 .04255296141
16975 .056 127 255 11 36 1 3 1 1 1 1 1 1 1 3 1 128 255 11 37 -.1101156754669122
 0 .1220740459287944 .2833354981356195 .457152704233746 .551272425701243 .625667
298081817 .789928988805137 .889884324533088 1 1.122074045928794 81 1 26 43 25 19
 0 0 0 23 38 17 31 0 39 31 31 0 40 19 0 0 +15 255 39 26 0 31 41 0 17 40 0 42 40
 40 0 31 19 0 0 -15 42 35 0 40 15 0 14 255 15 34 43 ?44 0 29 6 7 +0 0 44 0 22 81
 1 43 52 45 15 27 0 0 46 47 14 44 4 46 ?41 15 48 6 49 +0 0 41 15 22 15 29 33 0 2
4 15 42 13 22 3 0 0 0 0 0 0 9 15 81 1 46 53 45 44 50 0 43 51 52 14 41 22 51 ?0 4
4 39 6 17 -0 0 0 44 22 15 48 7 0 30 44 0 50 255 49 13 0 44 0 17 0 +-.01983137186
039635 .003635900095105185 .056 0 0 1 1 0 0 50 17 31 0 41 49 7 0 +-.019831371860
39635 .003635900095105185 .055 0 0 1 1 0 0 17 30 0 48 30 30 0 24 10 0 0 -81 1 51
 54 45 41 53 0 46 0 54 80 7 CCCCCDI12 legal_owners0 17 1 lCZ1 45 0 55 8001 0 0 0
 0 3 5 0 0 0 FFFFTFTFFFFFFFFFF2 81 1 53 46 25 41 0 51 27 50 56 83 255 3 54 .9843
13725490196 .3215686274509805 .3215686274509805 80 1 25 57 58 9000 0 0 0 0 3 6 0
 0 0 FFTFTFTTFFFFFFFFF1 81 1 27 45 25 15 0 43 23 53 59 81 1 50 47 25 44 0 46 53
 60 61 82 255 3 56 30 1 2 81 1 60 48 25 1 0 62 50 0 63 82 3 61 30 2 2 81 1 62 49
 64 1 60 12 0 0 65 82 3 63 30 0 3 80 1 64 66 67 8038 0 0 0 0 0 0 0 0 0 TTTTTTTTT
TTTTFTFT10 81 1 12 50 66 1 62 2 0 0 68 98 255 6 65 80 97 114 116 32 50 80 1 66 6
9 70 8017 0 0 0 0 0 0 0 0 0 TTTTTTTTTTTTTFTFT3 84 255 6 68 Part 279 255 13 70 SD
L/TYSA_NAME79 14 67 SDL/TYSA_UNAME82 3 59 30 0 2 79 9 58 BTI/DetId79 15 55 SDL/T
YSA_COLOUR83 3 52 .984313725490196 .3215686274509805 .3215686274509805 83 3 47 .
984313725490196 .3215686274509805 .3215686274509805 82 3 38 30 2 1 82 3 28 30 3
 1 19 16 39 0 1 0 9 6 0 S0 136 20 3 11 3 11 6 TTF2 71 72 73 135 21 2 0 45 33 71
 -.0438290263514046 .0425529614116975 .055 -.04217599116984385 .0437984968043974
 .055 -.03614870698354195 .04221545808602125 .055 -.018602818752134 .03997230803
73989 .055 -.0276231509000634 .02140378923799275 .055 -.0328479220907653 .019335
66608417685 .055 -.0349783596532394 .02185126703468255 .055 -.045627686111879 .0
315256453357299 .055 -.0466997208372641 .03629392370490565 .055 -.04532013024825
02 .04142943863466845 .055 -.0438290263514046 .0425529614116975 .055 127 11 72 1
 3 1 1 1 1 1 1 1 3 1 128 11 73 -.1101156754669122 0 .1220740459287944 .283335498
1356195 .457152704233746 .551272425701243 .625667298081817 .789928988805137 .889
884324533088 1 1.122074045928794 74 4 CI16 index_map_offset0 0 1 dCCZ20 14 5 0 0
 60 62 12 2 51 0 0 0 0 0 0 0 0 0 0 0 0 0 0 0 80 1 11 45 74 8040 0 0 0 0 3 5 0 0
 0 TTTFFFFFFFFFFFFFF2 83 3 13 .984313725490196 .3215686274509805 .32156862745098
05 79 17 74 SDL/TYSA_COLOUR_21 0 
