**ABCDEFGHIJKLMNOPQRSTUVWXYZabcdefghijklmnopqrstuvwxyz**************************
**PARASOLID !"#$%&'()*+,-./:;<=>?@[\]^_`{|}~0123456789**************************
**PART1;
MC=unknown;
MC_MODEL=unknown;
MC_ID=unknown;
OS=unknown;
OS_RELEASE=unknown;
FRU=Parasolid 37.0.209;
APPL=Onshape;
SITE=unknown;
USER=unknown;
FORMAT=text;
GUISE=transmit;
KEY=BTGapi::writeModels_.xmt;
FILE=BTGapi::writeModels_.xmt;
DATE=2025-07-09T02:27:43 (UTC);
**PART2;
SCH=SCH_3700209_36001;
USFLD_SIZE=0;
**PART3;
**END_OF_HEADER*****************************************************************
T51 : TRANSMIT FILE created by modeller version 370020923 SCH_3700209_36001_1300
6231 0 12 36 CCCI7 lattice222 0 CCCI4 mesh1006 0 I8 polyline1008 0 CCCCCCCDI5 ow
ner1040 0 CCCI16 boundary_lattice222 0 CCCI13 boundary_mesh1006 0 I17 boundary_p
olyline1008 0 CCCA16 index_map_offset0 0 1 dA9 index_map82 0 A17 node_id_index_m
ap82 0 A20 schema_embedding_map82 0 A5 child12 0 A14 lowest_node_id0 0 1 dA16 me
sh_offset_data206 0 Z1 115 2 3 0 0 0 0 0 0 0 1e3 1e-8 0 4 5 1 0 1 2 6 0 7 8 9 0
 0 10 11 12 0 0 0 0 0 0 0 81 255 1 2 111 13 1 14 0 0 0 15 70 11 CI9 list_type0 0
 1 uI10 notransmit0 0 1 lCCCDCCDI12 finger_index0 0 1 dI12 finger_block1012 0 CZ
3 0 4 T1 0 0 5 20 1 16 16 13 255 6 85 0 1 0 17 0 0 18 0 67 255 7 82 0 19 20 0 0
 +21 0 0 -1 ?30 255 8 84 0 22 23 0 0 +-.01984537186039635 .00746078723584681 .05
6 0 0 -1 29 255 9 73 0 24 25 0 -.01984537186039635 .0137390706121121 .055 19 9 C
CCCCCI5 frame230 0 CA5 owner12 0 Z10 1 0 1 18 0 26 0 V0 16 255 11 75 27 ?28 0 22
 23 0 0 1 18 255 12 21 29 30 0 31 32 ?1 81 1 29 95 33 12 0 0 34 35 36 17 255 30
 0 37 38 39 12 28 11 0 40 -18 31 24 41 42 12 24 43 ?1 29 32 31 0 12 43 25 -.0198
4537186039635 .0137390706121121 .056 29 43 30 0 31 0 32 -.01984537186039635 .007
46078723584681 .056 29 25 74 0 44 32 9 -.01984537186039635 .00746078723584681 .0
55 18 44 66 35 45 24 0 25 ?1 81 1 35 96 33 44 0 0 29 41 46 17 45 0 37 39 38 44 4
7 22 0 48 +18 24 62 34 28 31 44 9 ?1 81 1 34 94 33 24 0 0 0 29 49 17 28 0 50 48
 40 24 30 11 0 51 +15 255 50 79 0 48 19 0 17 48 0 50 47 28 44 51 52 0 53 +17 40
 0 50 28 47 12 42 54 0 55 -17 51 0 56 53 53 24 48 52 0 39 -15 56 53 0 53 57 0 17
 53 0 56 51 51 44 39 58 0 0 +16 52 58 59 ?48 58 0 60 0 0 1 17 39 0 37 30 45 24 5
3 58 0 0 -15 37 77 0 39 17 0 16 58 54 61 ?53 54 52 62 0 0 1 81 1 61 102 33 58 0
 0 63 64 65 16 54 18 63 ?42 66 58 21 0 0 1 134 255 62 71 0 58 60 23 0 +67 68 134
 60 72 0 52 69 62 0 +70 71 30 23 83 0 11 62 8 0 +-.01984537186039635 .0137390706
121121 .056 0 0 -1 136 255 67 3 6 3 4 6 FFF2 72 73 74 135 255 68 2 0 45 255 18 7
2 -.01984537186039635 .0137390706121121 .055 -.018498016499833 .0140107725995817
4 .055 -.0143011406842698 .00730089846707781 .055 -.0139474151872763 .0032271285
69337055 .055 -.01854074353195645 .00513514161184549 .055 -.01984537186039635 .0
0746078723584681 .055 127 255 6 73 4 1 1 4 0 0 128 255 6 74 0 .4141167462211445
 .650897615755583 1 ??134 69 29 0 66 21 60 75 +76 77 136 70 3 6 3 4 6 FFF2 78 79
 80 135 71 2 0 45 18 78 -.01984537186039635 .0137390706121121 .055 -.02119272722
09597 .01401077259958174 .055 -.0253896030365229 .00730089846707781 .055 -.02574
33285335164 .003227128569337055 .055 -.02115000018883625 .00513514161184549 .055
 -.01984537186039635 .00746078723584681 .055 127 6 79 4 1 1 4 0 0 128 6 80 0 .41
41167462211445 .650897615755583 1 ??16 66 12 64 ?38 22 54 69 0 0 1 134 21 27 0 5
4 0 69 81 +82 83 141 255 75 20 75 75 69 136 76 3 6 3 4 6 FFF2 84 85 86 135 77 2
 0 45 18 84 -.01984537186039635 .0137390706121121 .056 -.018498016499833 .014010
77259958174 .056 -.0143011406842698 .00730089846707781 .056 -.0139474151872763 .
003227128569337055 .056 -.01854074353195645 .00513514161184549 .056 -.0198453718
6039635 .00746078723584681 .056 127 6 85 4 1 1 4 0 0 128 6 86 0 .414116746221144
5 .650897615755583 1 ??67 20 81 0 17 87 7 0 +69 0 0 -1 .001994499913521585 14 25
5 17 78 88 ?19 0 37 6 20 +0 0 19 0 26 50 255 87 70 0 57 89 20 0 +-.0198313718603
9635 .003635900095105185 .055 0 0 1 1 0 0 14 57 47 90 ?0 91 56 6 87 -0 0 0 91 26
 50 89 32 0 91 0 87 0 +-.01983137186039635 .003635900095105185 .056 0 0 1 1 0 0
 14 91 4 92 ?57 19 93 6 89 +0 0 57 19 26 81 1 92 114 94 91 95 0 96 90 97 14 19 8
0 96 ?91 17 50 6 7 -0 0 91 17 26 15 93 7 0 55 91 0 13 26 3 0 0 0 0 0 0 10 17 17
 55 0 93 42 42 12 38 66 0 0 -17 42 0 93 55 55 31 40 54 0 47 +17 38 0 37 45 30 31
 55 66 0 0 +17 47 0 50 40 48 31 45 22 0 38 -16 22 76 98 ?45 11 66 8 0 0 1 81 1 9
8 99 33 22 0 0 27 59 99 80 7 CCCCCDI12 legal_owners0 17 1 lCZ1 33 100 101 9000 0
 0 0 0 3 6 0 0 0 FFTFTFTTFFFFFFFFF1 81 1 27 98 33 11 0 0 41 98 102 81 1 59 100 3
3 52 0 0 98 63 103 82 255 3 99 30 1 1 81 1 63 101 33 54 0 0 59 61 104 82 3 103 3
0 4 1 82 3 104 30 5 1 81 1 41 97 33 31 0 0 35 27 105 82 3 102 30 0 1 82 3 105 30
 3 0 79 255 9 101 BTI/DetId81 1 96 113 94 19 106 0 88 92 107 80 1 94 0 108 8001
 0 0 0 0 3 5 0 0 0 FFFFTFTFFFFFFFFFF2 81 1 106 104 33 19 0 96 64 109 110 81 1 88
 112 94 17 111 0 0 96 112 83 255 3 107 .501960784313726 .486274509803922 .439215
68627451 81 1 111 107 33 17 0 88 95 113 114 83 3 112 .501960784313726 .486274509
803922 .43921568627451 81 1 95 106 33 91 0 92 109 111 115 81 1 113 108 33 1 0 11
6 111 0 117 82 3 114 30 9 2 81 1 116 109 118 1 113 14 0 0 119 82 3 117 30 1 3 80
 1 118 120 121 8038 0 0 0 0 0 0 0 0 0 TTTTTTTTTTTTTFTFT10 81 1 14 110 120 1 116
 2 0 0 122 98 255 6 119 80 97 114 116 32 51 80 1 120 123 124 8017 0 0 0 0 0 0 0
 0 0 TTTTTTTTTTTTTFTFT3 84 255 6 122 Part 379 13 124 SDL/TYSA_NAME79 14 121 SDL/
TYSA_UNAME81 1 109 105 33 57 0 90 106 95 125 82 3 115 30 5 2 81 1 90 115 94 57 1
09 0 92 0 126 82 3 125 30 4 2 83 3 126 .501960784313726 .486274509803922 .439215
68627451 81 1 64 103 33 66 0 0 61 106 127 82 3 110 30 3 2 82 3 127 30 9 1 79 15
 108 SDL/TYSA_COLOUR83 3 97 .501960784313726 .486274509803922 .43921568627451 14
1 81 7 81 81 21 136 82 3 6 3 4 6 FFF2 128 129 130 135 83 2 0 45 18 128 -.0198453
7186039635 .0137390706121121 .056 -.0211927272209597 .01401077259958174 .056 -.0
253896030365229 .00730089846707781 .056 -.0257433285335164 .003227128569337055 .
056 -.02115000018883625 .00513514161184549 .056 -.01984537186039635 .00746078723
584681 .056 127 6 129 4 1 1 4 0 0 128 6 130 0 .4141167462211445 .650897615755583
 1 ??82 3 65 30 8 1 82 3 49 30 0 0 82 3 46 30 2 0 82 3 36 30 1 0 19 18 86 0 1 0
 10 6 0 S0 74 4 CI16 index_map_offset0 0 1 dCCZ20 16 5 0 0 113 116 14 2 90 0 0 0
 0 0 0 0 0 0 0 0 0 0 0 0 80 1 13 94 131 8040 0 0 0 0 3 5 0 0 0 TTTFFFFFFFFFFFFFF
2 83 3 15 .501960784313726 .486274509803922 .43921568627451 79 17 131 SDL/TYSA_C
OLOUR_21 0 
