**ABCDEFGHIJKLMNOPQRSTUVWXYZabcdefghijklmnopqrstuvwxyz**************************
**PARASOLID !"#$%&'()*+,-./:;<=>?@[\]^_`{|}~0123456789**************************
**PART1;
MC=unknown;
MC_MODEL=unknown;
MC_ID=unknown;
OS=unknown;
OS_RELEASE=unknown;
FRU=Parasolid 37.0.209;
APPL=Onshape;
SITE=unknown;
USER=unknown;
FORMAT=text;
GUISE=transmit;
KEY=BTGapi::writeModels_.xmt;
FILE=BTGapi::writeModels_.xmt;
DATE=2025-07-08T16:18:18 (UTC);
**PART2;
SCH=SCH_3700209_36001;
USFLD_SIZE=0;
**PART3;
**END_OF_HEADER*****************************************************************
T51 : TRANSMIT FILE created by modeller version 370020923 SCH_3700209_36001_1300
6231 0 12 36 CCCI7 lattice222 0 CCCI4 mesh1006 0 I8 polyline1008 0 CCCCCCCDI5 ow
ner1040 0 CCCI16 boundary_lattice222 0 CCCI13 boundary_mesh1006 0 I17 boundary_p
olyline1008 0 CCCA16 index_map_offset0 0 1 dA9 index_map82 0 A17 node_id_index_m
ap82 0 A20 schema_embedding_map82 0 A5 child12 0 A14 lowest_node_id0 0 1 dA16 me
sh_offset_data206 0 Z1 99 2 3 0 0 0 0 0 0 0 1e3 1e-8 0 4 5 1 0 1 2 6 0 7 8 0 0 0
 9 10 0 0 0 0 0 0 0 0 81 255 1 2 96 11 1 12 0 0 0 13 70 11 CI9 list_type0 0 1 uI
10 notransmit0 0 1 lCCCDCCDI12 finger_index0 0 1 dI12 finger_block1012 0 CZ3 0 4
 T1 0 0 5 20 1 14 14 13 255 6 83 0 1 0 15 0 0 16 0 67 255 7 82 0 15 17 0 0 +18 0
 0 -1 ?134 255 8 77 0 19 18 0 0 +20 21 19 9 CCCCCCI5 frame230 0 CA5 owner12 0 Z9
 55 0 1 16 0 22 0 V0 16 255 10 24 23 ?24 0 19 18 0 0 1 81 1 23 89 25 10 0 0 26 2
7 28 17 255 24 0 29 24 24 0 30 10 0 0 +16 19 72 26 ?31 10 0 8 0 0 1 134 18 26 0
 10 0 8 32 +33 34 141 255 32 7 32 32 18 136 255 33 3 11 3 11 6 TTF2 35 36 37 135
 255 34 2 0 45 255 33 35 .00413828263061191 .04255296141169755 .056 .00248524744
905114 .0437984968043974 .056 -.00354203673725073 .04221545808602125 .056 -.0210
879249686587 .03997230803739885 .056 -.0120675928207293 .02140378923799275 .056
 -.00684282163002742 .01933566608417685 .056 -.00471238406755331 .02185126703468
255 .056 .00593694239108633 .0315256453357299 .056 .0070089771164714 .0362939237
0490565 .056 .00562938652745751 .04142943863466845 .056 .00413828263061191 .0425
5296141169755 .056 127 255 11 36 1 3 1 1 1 1 1 1 1 3 1 128 255 11 37 -.110115675
4669122 0 .1220740459287944 .2833354981356195 .457152704233746 .551272425701243
 .625667298081817 .789928988805137 .889884324533088 1 1.122074045928794 81 1 26
 88 25 19 0 0 0 23 38 17 31 0 39 31 31 0 40 19 0 0 +15 255 39 80 0 31 15 0 17 40
 0 41 40 40 0 31 19 0 0 -15 41 71 0 40 42 0 14 255 42 67 43 ?0 44 41 6 17 -0 0 0
 44 22 81 1 43 99 45 42 46 0 47 0 48 14 44 7 47 ?42 15 29 6 49 +0 0 42 15 22 50
 255 17 76 0 42 49 7 0 +-.01983137186039635 .003635900095105185 .055 0 0 1 1 0 0
 13 22 58 0 0 0 0 0 0 9 15 14 15 79 50 ?44 0 51 6 7 -0 0 44 0 22 81 1 50 97 45 1
5 27 0 0 47 52 15 51 78 0 30 15 39 17 30 0 51 30 30 0 24 10 0 0 -80 7 CCCCCDI12
 legal_owners0 17 1 lCZ1 45 0 53 8001 0 0 0 0 3 5 0 0 0 FFFFTFTFFFFFFFFFF2 81 1
 27 90 25 15 0 50 23 46 54 81 1 47 98 45 44 55 0 50 43 56 83 255 3 52 .984313725
490196 .3215686274509805 .3215686274509805 81 1 55 92 25 44 0 47 46 57 58 83 3 5
6 .984313725490196 .3215686274509805 .3215686274509805 80 1 25 59 60 9000 0 0 0
 0 3 6 0 0 0 FFTFTFTTFFFFFFFFF1 81 1 46 91 25 42 0 43 27 55 61 81 1 57 93 25 1 0
 62 55 0 63 82 255 3 58 30 8 2 81 1 62 94 64 1 57 12 0 0 65 82 3 63 30 2 3 80 1
 64 66 67 8038 0 0 0 0 0 0 0 0 0 TTTTTTTTTTTTTFTFT10 81 1 12 95 66 1 62 2 0 0 68
 98 255 6 65 80 97 114 116 32 52 80 1 66 69 70 8017 0 0 0 0 0 0 0 0 0 TTTTTTTTTT
TTTFTFT3 84 255 6 68 Part 479 255 13 70 SDL/TYSA_NAME79 14 67 SDL/TYSA_UNAME82 3
 61 30 7 2 79 9 60 BTI/DetId82 3 54 30 6 2 79 15 53 SDL/TYSA_COLOUR50 49 3 0 44
 0 17 0 +-.01983137186039635 .003635900095105185 .056 0 0 1 1 0 0 15 29 10 0 24
 44 0 83 3 48 .984313725490196 .3215686274509805 .3215686274509805 82 3 38 30 6
 1 82 3 28 30 7 1 19 16 84 0 1 0 9 6 0 S0 136 20 3 11 3 11 6 TTF2 71 72 73 135 2
1 2 0 45 33 71 .00413828263061191 .04255296141169755 .055 .00248524744905114 .04
37984968043974 .055 -.00354203673725073 .04221545808602125 .055 -.02108792496865
87 .03997230803739885 .055 -.0120675928207293 .02140378923799275 .055 -.00684282
163002742 .01933566608417685 .055 -.00471238406755331 .02185126703468255 .055 .0
0593694239108633 .0315256453357299 .055 .0070089771164714 .03629392370490565 .05
5 .00562938652745751 .04142943863466845 .055 .00413828263061191 .042552961411697
55 .055 127 11 72 1 3 1 1 1 1 1 1 1 3 1 128 11 73 -.1101156754669122 0 .12207404
59287944 .2833354981356195 .457152704233746 .551272425701243 .625667298081817 .7
89928988805137 .889884324533088 1 1.122074045928794 74 4 CI16 index_map_offset0
 0 1 dCCZ20 14 5 0 0 57 62 12 2 43 0 0 0 0 0 0 0 0 0 0 0 0 0 0 0 80 1 11 45 74 8
040 0 0 0 0 3 5 0 0 0 TTTFFFFFFFFFFFFFF2 83 3 13 .984313725490196 .3215686274509
805 .3215686274509805 79 17 74 SDL/TYSA_COLOUR_21 0 
